<?xml version="1.0" encoding="UTF-8"?>
<svg id="Layer_1" xmlns="http://www.w3.org/2000/svg" version="1.1" viewBox="0 0 290.56 28.13">
  <!-- Generator: Adobe Illustrator 29.7.1, SVG Export Plug-In . SVG Version: 2.1.1 Build 8)  -->
  <defs>
    <style>
      .st0 {
        fill: #fff;
      }
    </style>
  </defs>
  <path class="st0" d="M262.72,6.21h27.84V0h-27.84c-4.66,0-8.45,3.86-8.45,8.59s3.79,8.59,8.45,8.59h19.39c1.29,0,2.35,1.06,2.35,2.38v2.38h-33.59l-1.89-2.13c3.18-1.83,5.32-5.26,5.32-9.2,0-5.86-4.75-10.61-10.61-10.61,0,0,0,0,0,0h-20.86v6.17h20.86c2.45,0,4.44,1.99,4.44,4.44s-1.99,4.44-4.44,4.44h-9.64,0s-11.22,0-11.22,0V6.17h-6.45v21.96h6.45v-6.91h18.99l6.14,6.91h42.6v-8.56c0-.34-.02-.66-.05-.99-.48-4.27-4.06-7.6-8.4-7.6h-19.39c-1.29,0-2.35-1.06-2.35-2.38s1.06-2.39,2.35-2.39Z"/>
  <path class="st0" d="M37.85,13.69c.3-.97.46-2.01.46-3.08,0-5.86-4.75-10.61-10.61-10.61H6.68v6.17h21.02c2.45,0,4.44,1.99,4.44,4.44,0,.02,0,.04,0,.07v4.37H6.68V6.17H0v21.96h6.68v-6.91h21.02c1.13,0,2.21-.18,3.23-.5l6.92-7.03Z"/>
  <polygon class="st0" points="58.19 0 55.99 0 28.28 28.13 37.04 28.13 58.19 6.66 58.19 28.13 64.64 28.13 64.64 0 64.59 0 58.19 0"/>
  <path class="st0" d="M169.05,19.29L145.07,0h-51.15s-20.31,0-20.31,0h0s-6.45,0-6.45,0v28.13h6.45v-6.91h19.82l6.14,6.91h8.41l-7.39-8.32c3.18-1.83,5.32-5.26,5.32-9.2,0-1.58-.35-3.09-.97-4.44h13.99v21.96h6.17V6.17h14.9v21.96h6.17V8.78l24.04,19.34h5V.01h-6.17v19.27ZM95.3,15.04h-9.64,0s-12.05,0-12.05,0V6.17h21.68c2.45,0,4.44,1.99,4.44,4.44s-1.99,4.44-4.44,4.44Z"/>
  <polygon class="st0" points="178.02 1.13 178.02 6.17 178.02 21.92 184.2 21.92 184.2 17.13 213.78 17.13 213.78 10.96 184.2 10.96 184.2 6.17 213.78 6.17 213.78 0 178.02 0 178.02 1.13"/>
  <rect class="st0" x="184.2" y="21.92" width="29.58" height="6.17"/>
</svg>